<?xml version="1.0" encoding="utf-8"?>
<!-- Generator: Adobe Illustrator 27.1.1, SVG Export Plug-In . SVG Version: 6.00 Build 0)  -->
<svg version="1.1" id="Calque_1" xmlns="http://www.w3.org/2000/svg" xmlns:xlink="http://www.w3.org/1999/xlink" x="0px" y="0px"
	 viewBox="0 0 50.9 100.9" style="enable-background:new 0 0 50.9 100.9;" xml:space="preserve">
<style type="text/css">
	.st0{fill:#6AD727;}
</style>
<path class="st0" d="M50.7,81.8v-1.1h-0.3c-0.3,0-0.5,0-0.8-0.1c-0.3-0.1-0.7-0.1-1-0.1h-0.3V36.2l2.6-2.6l0,0V32h-2.6v-6H35.7v-3.2
	l0,0v-3l0,0c-0.1-3.9-2.3-8.9-6-10.7V7.5h-2.6V0h-0.3v7.5h-2.6v1.7c-3.7,1.7-5.9,6.7-6,10.7l0,0v3l0,0V26H6.2V15.7H6.1
	c-0.5-0.1-0.9-0.3-1.3-0.6c-0.5-0.3-1-0.5-1.5-0.6V7H3v7.5c-0.5,0.1-1.1,0.3-1.5,0.6c-0.4,0.3-0.9,0.4-1.3,0.6H0v51.5l0,0
	c0.2,0.3,2.2,2.6,3.1,2.6c0.5,0,1.3-0.6,2.4-1.8v12.4H5.3c-0.3,0-0.7,0-1,0.1c-0.3,0.1-0.5,0.1-0.8,0.1H3.2v1.1c1,0,2.4,2.5,2.4,5
	l0,0v14l0,0v0.2h42.7v-0.2l0,0v-14C48.3,84.3,49.7,81.8,50.7,81.8L50.7,81.8L50.7,81.8z M35.7,36v-2.4h14.8L48.1,36H35.7z M0.3,25.2
	c0.4-0.1,0.8-0.2,1.2-0.3c0.5-0.1,1-0.2,1.4-0.3v12.7c-0.5,0.1-1,0.2-1.5,0.3c-0.4,0.1-0.8,0.2-1.1,0.3L0.3,25.2L0.3,25.2L0.3,25.2z
	 M26.9,26.3h8.4v1.2H18.5v-1.2C18.5,26.3,26.9,26.3,26.9,26.3z M46.8,43.1v3.7h-5.4v-4c0-1.5,1.2-2.7,2.7-2.7s2.7,1.2,2.7,2.7
	L46.8,43.1C46.8,43.1,46.8,43.1,46.8,43.1z M46.8,54.5v3.9h-5.4v-4.3c0-1.5,1.2-2.7,2.7-2.7s2.7,1.2,2.7,2.7L46.8,54.5L46.8,54.5
	L46.8,54.5z M18.2,36.3v2H7.1v-2C7.1,36.3,18.2,36.3,18.2,36.3z M7.1,28.5h3.5V32H7.1V28.5z M10.9,28.5h3.5V32h-3.5V28.5z
	 M14.7,28.5h3.5V32h-3.5V28.5L14.7,28.5z M35.1,74.5v-1.7l0,0v-2h11.7v3.8L35.1,74.5z M26.9,74.5h-7.8v-3.7h15.6v3.7L26.9,74.5
	C26.9,74.5,26.9,74.5,26.9,74.5z M7.1,74.5v-3.7h11.7v2l0,0v1.7L7.1,74.5L7.1,74.5z M35.4,43.1v6.3H30v-8.8c0-1.5,1.2-2.8,2.7-2.9
	c1.5,0,2.7,1.2,2.7,2.7L35.4,43.1L35.4,43.1z M24.2,41L24.2,41v-0.7c-0.1-0.8,0.1-1.5,0.6-2.2c0.6-0.4,1.3-0.6,2-0.5h0.3
	c0.7-0.1,1.4,0.1,2,0.5c0.5,0.6,0.7,1.4,0.6,2.2V41l0,0v8.5h-5.5L24.2,41C24.2,41,24.2,41,24.2,41z M12.8,43.2L12.8,43.2v-0.3
	c0-1.5,1.2-2.7,2.7-2.7s2.7,1.2,2.7,2.7v4h-5.4L12.8,43.2L12.8,43.2L12.8,43.2z M18.5,40.8v-0.4c0-1.5,1.2-2.7,2.7-2.7c0,0,0,0,0,0
	c1.5,0.1,2.7,1.4,2.7,2.9v8.9h-5.4L18.5,40.8L18.5,40.8L18.5,40.8z M35.7,43.1v-0.3c0-1.5,1.2-2.7,2.7-2.7s2.7,1.2,2.7,2.7v0.3l0,0
	v3.7h-5.4C35.7,46.8,35.7,43.1,35.7,43.1z M26.7,51h0.9c0.6,0,1.1,0.1,1.6,0.5c0.4,0.6,0.6,1.3,0.6,2v0.7l0,0v7.1h-5.5v-7.1l0,0
	v-0.7c-0.1-0.7,0.1-1.4,0.6-2c0.4-0.3,1-0.5,1.6-0.5L26.7,51L26.7,51z M12.8,62.8h6v7.6h-6C12.8,70.4,12.8,62.8,12.8,62.8z M27,63.4
	c4,0,7.3,3,7.8,7H19.2C19.6,66.5,23,63.5,27,63.4z M35.1,62.8h6v7.6h-6C35.1,70.4,35.1,62.8,35.1,62.8z M35.1,62.5H18.5v-0.9h16.9
	v0.9C35.4,62.5,35.1,62.5,35.1,62.5z M35.4,53.7v7.6H30v-7.5c0-1.5,1.2-2.8,2.7-2.8C34.2,51,35.4,52.2,35.4,53.7L35.4,53.7z
	 M23.9,53.9v7.5h-5.4v-7.7c0-1.5,1.2-2.7,2.7-2.7C22.7,51.1,23.9,52.3,23.9,53.9C23.9,53.9,23.9,53.9,23.9,53.9z M12.8,54.5
	L12.8,54.5v-0.3c0-1.5,1.2-2.7,2.7-2.7s2.7,1.2,2.7,2.7l0,0v4.2h-5.4L12.8,54.5L12.8,54.5L12.8,54.5z M18.2,62.5H7.1v-3.8h11.1
	L18.2,62.5L18.2,62.5z M12.5,62.8v7.6H7.1v-7.6C7.1,62.8,12.5,62.8,12.5,62.8z M41.4,70.4v-7.6h5.4v7.6L41.4,70.4z M35.7,62.5v-3.8
	h11.1v3.8H35.7z M35.7,58.4v-4.2l0,0c0-1.5,1.2-2.7,2.7-2.7s2.7,1.2,2.7,2.7v0.3l0,0v3.9L35.7,58.4L35.7,58.4z M27.6,50.7h-9v-0.9
	h16.9v0.9C35.4,50.7,27.6,50.7,27.6,50.7z M18.6,30.7h16.9v0.8H18.5L18.6,30.7L18.6,30.7z M18.6,27.8h2.1v2.5h-2.2L18.6,27.8
	L18.6,27.8z M35.4,30.4h-2.2v-2.6h2.2V30.4z M32.9,30.4h-2.1v-2.6h2.1V30.4z M30.5,30.4h-2.1v-2.6h2.1V30.4z M28,30.4h-2v-2.6h2
	V30.4z M25.6,30.4h-2.1v-2.6h2.1V30.4z M23.2,30.4H21v-2.6h2.1L23.2,30.4L23.2,30.4z M18.6,31.8h16.9V36H18.5L18.6,31.8
	C18.5,31.7,18.6,31.8,18.6,31.8z M7.2,42.8c0-1.5,1.2-2.7,2.7-2.7s2.7,1.2,2.7,2.7l0,0v4.1H7.1L7.2,42.8L7.2,42.8z M18.3,47.1V51
	H7.1v-3.9L18.3,47.1L18.3,47.1z M7.2,54.2c0-1.5,1.2-2.7,2.7-2.7s2.7,1.2,2.7,2.7v4.3H7.2L7.2,54.2L7.2,54.2L7.2,54.2z M35.7,51
	v-3.9h11.1V51C46.8,51,35.7,51,35.7,51z M35.7,38.3v-2h11.1v2C46.8,38.3,35.7,38.3,35.7,38.3z M35.7,28.5h3.5V32h-3.5V28.5
	C35.7,28.5,35.7,28.5,35.7,28.5z M39.5,28.5H43V32h-3.5V28.5C39.5,28.5,39.5,28.5,39.5,28.5z M43.3,28.5h3.5V32h-3.5V28.5
	C43.3,28.5,43.3,28.5,43.3,28.5z M5.9,28.5h0.9V32H5.9V28.5C5.9,28.5,5.9,28.5,5.9,28.5z M18.2,32.4v0.9H3.3v-0.9H18.2L18.2,32.4z
	 M3.3,46.5c0.5,0.1,1,0.2,1.5,0.3L5.6,47v11.6l-0.7-0.2c-0.5-0.2-1-0.3-1.5-0.3L3.3,46.5L3.3,46.5L3.3,46.5z M4.9,46.5
	c-0.5-0.2-1-0.3-1.5-0.3v-8.6c0.5,0.1,1,0.2,1.5,0.3l0.8,0.2v8.6L4.9,46.5L4.9,46.5z M4.9,37.6c-0.5-0.2-1-0.2-1.5-0.3v-3.4l2.3,2.3
	v1.6L4.9,37.6L4.9,37.6L4.9,37.6z M3,58.1c-0.5,0.1-1,0.2-1.5,0.3c-0.4,0.1-0.8,0.2-1.2,0.3V47.1c0.4-0.1,0.8-0.2,1.2-0.3
	c0.5-0.1,1-0.2,1.4-0.3V58.1C3,58.1,3,58.1,3,58.1z M0.3,59c0.4-0.1,0.8-0.2,1.2-0.3c0.5-0.1,1-0.2,1.4-0.3v6.5
	c-0.5,0.1-1,0.2-1.5,0.3c-0.4,0.1-0.8,0.2-1.2,0.3L0.3,59L0.3,59L0.3,59z M3.4,58.4c0.5,0.1,1,0.2,1.5,0.3L5.6,59v6.4
	c-0.2,0-0.5-0.1-0.7-0.2c-0.5-0.2-1-0.3-1.5-0.3C3.4,64.9,3.4,58.4,3.4,58.4z M0.3,38.2c0.4-0.1,0.8-0.2,1.2-0.3
	c0.5-0.1,1-0.2,1.5-0.3v8.6c-0.5,0.1-1,0.2-1.5,0.3c-0.4,0.1-0.8,0.2-1.1,0.3C0.3,46.8,0.3,38.2,0.3,38.2z M0.3,65.8
	c0.4-0.1,0.8-0.2,1.2-0.3c0.5-0.1,1-0.2,1.4-0.3v1.2c-0.5,0.1-1,0.2-1.5,0.3c-0.4,0.1-0.8,0.2-1.2,0.3C0.3,67,0.3,65.8,0.3,65.8z
	 M3.3,65.2c0.5,0.1,1,0.2,1.5,0.3l0.8,0.2v1.2l-0.7-0.2c-0.5-0.2-1-0.3-1.5-0.3C3.3,66.4,3.3,65.2,3.3,65.2z M5.8,36l-2.3-2.4h14.8
	V36H5.8z M7.1,75.9h5.4v4.6l-0.4,0.1c-0.3,0.1-0.7,0.1-1,0.1c-0.3,0-0.6,0-0.9-0.1c-0.7-0.2-1.3-0.2-2,0c-0.3,0.1-0.7,0.1-1,0.1H7
	L7.1,75.9C7,75.8,7.1,75.9,7.1,75.9z M12.8,75.9h6v4.8c-0.2,0-0.5-0.1-0.7-0.1c-0.7-0.2-1.3-0.2-2,0c-0.3,0.1-0.6,0.1-0.9,0.1
	c-0.3,0-0.7,0-1-0.1s-0.7-0.1-1-0.1h-0.4L12.8,75.9L12.8,75.9L12.8,75.9z M19.1,80.7v-4.8h4.8v4.7c-0.3,0.1-0.6,0.1-0.9,0.1
	c-0.3,0-0.6,0-1-0.1c-0.7-0.2-1.3-0.2-2,0C19.7,80.6,19.4,80.7,19.1,80.7C19.1,80.6,19.1,80.7,19.1,80.7z M24.2,75.9h5.5v4.6
	c-0.2,0-0.5-0.1-0.7-0.1c-0.3,0-0.7,0-1,0.1c-0.3,0.1-0.6,0.1-1,0.1c-0.3,0-0.6,0-1-0.1c-0.3-0.1-0.7-0.1-1-0.1
	c-0.2,0-0.5,0-0.7,0.1L24.2,75.9L24.2,75.9z M34.8,80.7c-0.3,0-0.6,0-0.9-0.1c-0.7-0.2-1.3-0.2-2,0c-0.3,0.1-0.6,0.1-1,0.1
	c-0.3,0-0.6,0-0.9-0.1v-4.7h4.8L34.8,80.7L34.8,80.7z M35.1,75.9h6v4.6h-0.4c-0.3,0-0.7,0-1,0.1c-0.3,0.1-0.6,0.1-1,0.1
	c-0.3,0-0.7,0-1-0.1c-0.7-0.2-1.3-0.2-2,0c-0.2,0.1-0.5,0.1-0.7,0.1L35.1,75.9L35.1,75.9L35.1,75.9z M41.4,75.9h5.4v4.8h-0.2
	c-0.3,0-0.6,0-1-0.1c-0.7-0.2-1.3-0.2-2,0c-0.3,0.1-0.7,0.1-1,0.1c-0.3,0-0.6,0-1-0.1l-0.3-0.1L41.4,75.9L41.4,75.9z M50.6,33.3
	H35.7v-0.9h14.9L50.6,33.3C50.6,33.3,50.6,33.3,50.6,33.3z M47.1,32v-3.6H48V32H47.1z M48,26.2v1.9H35.7v-1.8L48,26.2z M26.9,15.6
	c0.4,0,0.7,0,1.1,0.1v1.5h-2.1v-1.5C26.2,15.7,26.6,15.6,26.9,15.6z M28.3,19.8v-2.2h2.1v2.2H28.3z M28,19.8h-2.1v-2.2H28
	C28,17.5,28,19.8,28,19.8z M25.6,19.8h-2.1v-2.2h2.1C25.6,17.5,25.6,19.8,25.6,19.8z M25.6,20.1v2.2h-2.1v-2.2
	C23.4,20.1,25.6,20.1,25.6,20.1z M25.9,20.1H28v2.2h-2.1V20.1z M28.3,20.1h2.1v2.2h-2.1V20.1z M30.7,22.3v-2.2h2.5
	c0.2,0.7,0.4,1.5,0.4,2.2l0,0C33.6,22.3,30.7,22.3,30.7,22.3z M30.7,19.8v-2.2h0.9c0.6,0.6,1.2,1.4,1.5,2.2H30.7z M30.7,17.2v-0.4
	c0.2,0.1,0.4,0.2,0.5,0.4H30.7z M30.4,17.2h-2.1v-1.4c0.8,0.2,1.5,0.4,2.1,0.8C30.4,16.6,30.4,17.2,30.4,17.2z M25.6,17.2h-2.1v-0.6
	c0.6-0.4,1.4-0.7,2.1-0.8C25.6,15.8,25.6,17.2,25.6,17.2z M23.1,17.2h-0.5c0.2-0.1,0.3-0.3,0.5-0.4V17.2z M22.3,17.5h0.9v2.2h-2.4
	C21.1,18.9,21.6,18.2,22.3,17.5L22.3,17.5z M20.7,20.1h2.5v2.2h-2.9C20.3,21.5,20.4,20.8,20.7,20.1C20.7,20.1,20.7,20.1,20.7,20.1z
	 M20.3,23.6v-1h2.9v2.2h-2.9L20.3,23.6C20.3,23.6,20.3,23.6,20.3,23.6z M23.5,22.6h2.1v2.2h-2.1C23.5,24.8,23.5,22.6,23.5,22.6z
	 M25.9,22.6H28v2.2h-2.1C25.9,24.8,25.9,22.6,25.9,22.6z M28.3,22.6h2.1v2.2h-2.1C28.3,24.8,28.3,22.6,28.3,22.6z M30.8,22.6h2.9
	v2.2h-2.9L30.8,22.6L30.8,22.6z M33.9,22.2c0-3.9-3.1-7-7-7l0,0c-3.9,0-7,3.1-7,7v2.6h-1.5v-2.5l0,0c0-0.1,0-0.2,0-0.2
	c0-0.6,0.1-1.1,0.2-1.7c1.1-4.5,5.6-7.3,10.1-6.2c3.1,0.7,5.5,3.1,6.2,6.2c0.1,0.6,0.2,1.1,0.2,1.7v0.2l0,0v2.5h-1.5L33.9,22.2
	C33.9,22.3,33.9,22.2,33.9,22.2z M26.9,13.5L26.9,13.5c-2.8,0-5.4,1.3-7.1,3.6c1.6-2.8,4.1-5.1,7.1-6.4c3,1.3,5.5,3.5,7.1,6.4
	C32.4,14.9,29.7,13.5,26.9,13.5z M24.5,7.8h4.9v1.3h-4.9V7.8z M24.4,9.4h5.2c3.7,1.7,5.8,6.7,5.8,10.5c-1.5-6.7-8.2-9.4-8.4-9.5
	c0,0-0.1,0-0.1,0c-0.3,0.1-6.9,2.8-8.4,9.5C18.5,16.1,20.7,11.1,24.4,9.4C24.4,9.4,24.4,9.4,24.4,9.4z M18.5,25.1h16.9V26H18.5V25.1
	z M18.2,28.1H5.9v-1.8h12.3L18.2,28.1C18.2,28.1,18.2,28.1,18.2,28.1z M5.6,26v6H3.3v-7.4c0.5,0.1,1,0.2,1.5,0.3
	C5.2,25,5.6,25.1,6,25.2V26H5.6z M4.7,15.4C5.1,15.6,5.5,15.8,6,16v8.9c-0.3-0.1-0.8-0.2-1.1-0.3c-0.5-0.1-1-0.2-1.5-0.3v-9.5
	C3.8,14.9,4.3,15.1,4.7,15.4L4.7,15.4L4.7,15.4z M1.6,15.4C2,15.1,2.5,14.9,3,14.8v9.5c-0.5,0.1-1,0.2-1.5,0.3
	c-0.4,0.1-0.8,0.2-1.1,0.3V16C0.8,15.9,1.2,15.7,1.6,15.4L1.6,15.4L1.6,15.4z M0.4,67.2c0.3-0.1,0.7-0.2,1.1-0.3
	c0.5-0.1,1-0.2,1.4-0.3v2.8C2,68.9,1.1,68.1,0.4,67.2C0.4,67.2,0.4,67.2,0.4,67.2z M5.4,67.7c-0.6,0.7-1.3,1.3-2.1,1.8v-2.8
	c0.5,0.1,1,0.2,1.5,0.3l0.8,0.2v0.4C5.6,67.6,5.4,67.7,5.4,67.7z M5.9,36.3h0.9v2l0,0V51l0,0v29.6c-0.2,0-0.3-0.1-0.5-0.1
	c-0.1,0-0.3-0.1-0.4-0.1V36.3L5.9,36.3z M47,99.7h1v0.9h-1V99.7z M46.7,100.6h-11v-0.9h11V100.6z M5.9,99.7h1v0.9h-1V99.7z
	 M7.2,99.7h11v0.9h-11C7.2,100.6,7.2,99.7,7.2,99.7z M17.4,83.4c0.2,0.4,0.4,0.9,0.5,1.3H7.1l-0.6-1.3C6.5,83.4,17.4,83.4,17.4,83.4
	z M18.2,99.4h-11v-8.9h11C18.2,90.5,18.2,99.4,18.2,99.4z M18.2,90.2h-11v-1.1h11C18.2,89.1,18.2,90.2,18.2,90.2z M18.2,87.9v0.9
	h-11v-0.9C7.2,87.9,18.2,87.9,18.2,87.9z M22.6,98.4c-0.1,0.9-1.6,1.6-2.8,1.9V87.8h2.8V98.4z M34.1,100.3c-1.2-0.4-2.7-1-2.8-1.9
	V87.9h2.8V100.3z M31,98.1h-8.1V87.8H31V98.1z M34.2,84.8H19.7l-0.6-1.3h15.8L34.2,84.8L34.2,84.8z M22.6,99.1v1.5h-2.8
	C20.8,100.4,21.8,99.9,22.6,99.1z M31.3,99.1c0.8,0.8,1.8,1.3,2.8,1.5h-2.8C31.3,100.6,31.3,99.1,31.3,99.1z M35.7,89.1h11v1.1h-11
	V89.1z M46.7,99.4h-11v-8.9h11C46.7,90.5,46.7,99.4,46.7,99.4z M46.7,88.8h-11v-0.9h11V88.8z M36,84.8c0.1-0.4,0.3-0.9,0.5-1.3h10.9
	l-0.6,1.3H36z M48.2,81.8l-0.7,1.4H36.7c0.5-0.8,1-1.4,1.5-1.4H48.2z M34.5,85l1.6-3.2h1.4c-1.3,1.3-2,3.1-2,5v13.8
	c-0.2,0-0.6-0.1-0.9-0.2L34.5,85C34.5,85,34.5,85,34.5,85z M35,83.2H18.9l-0.7-1.4h17.5L35,83.2z M19.4,100.4
	c-0.4,0.1-0.7,0.2-0.9,0.2V86.8c0-1.9-0.7-3.7-2-5h1.4l1.6,3.2L19.4,100.4L19.4,100.4z M15.7,81.8c0.5,0,1,0.6,1.5,1.4H6.3l-0.6-1.4
	H15.7L15.7,81.8z M22.9,98.4H31v2.2h-8.1V98.4z M6.9,99.4h-1V86.7l0,0c0-2-0.9-4.2-2-4.9h1.4L6.9,85L6.9,99.4L6.9,99.4L6.9,99.4z
	 M48,86.7L48,86.7v12.7h-1V85l0,0l1.6-3.2h1.4C48.9,82.6,48,84.8,48,86.7L48,86.7L48,86.7z M49.5,80.8c0.3,0.1,0.6,0.1,0.9,0.1v0.5
	H3.5V81c0.3,0,0.6-0.1,0.9-0.1c0.3-0.1,0.7-0.1,1-0.1c0.3,0,0.6,0,0.9,0.1c0.7,0.2,1.3,0.2,2,0c0.3-0.1,0.7-0.1,1-0.1
	c0.3,0,0.6,0,0.9,0.1c0.7,0.2,1.3,0.2,2,0c0.3-0.1,0.7-0.1,1-0.1c0.3,0,0.6,0,0.9,0.1c0.7,0.2,1.3,0.2,2,0c0.3-0.1,0.7-0.1,1-0.1
	c0.3,0,0.6,0,1,0.1c0.7,0.2,1.3,0.2,2,0c0.3-0.1,0.7-0.1,1-0.1c0.3,0,0.6,0,1,0.1c0.7,0.2,1.3,0.2,2,0c0.3-0.1,0.6-0.1,1-0.1
	c0.3,0,0.6,0,1,0.1c0.7,0.2,1.3,0.2,2,0c0.6-0.2,1.3-0.2,1.9,0c0.7,0.2,1.3,0.2,2,0c0.3-0.1,0.6-0.1,1-0.1c0.3,0,0.6,0,1,0.1
	c0.7,0.2,1.3,0.2,2,0c0.3-0.1,0.6-0.1,1-0.1c0.3,0,0.7,0,1,0.1c0.7,0.2,1.3,0.2,2,0c0.3-0.1,0.6-0.1,1-0.1c0.3,0,0.7,0,1,0.1
	c0.7,0.2,1.3,0.2,2,0c0.3-0.1,0.6-0.1,1-0.1c0.3,0,0.7,0,1,0.1c0.7,0.2,1.3,0.2,2,0c0.3-0.1,0.6-0.1,1-0.1
	C48.9,80.8,49.2,80.8,49.5,80.8C49.5,80.9,49.5,80.8,49.5,80.8z M47.5,80.5c-0.2,0-0.3,0.1-0.5,0.1V51l0,0V38.2l0,0v-2H48v44.2
	C47.8,80.4,47.7,80.5,47.5,80.5L47.5,80.5L47.5,80.5z"/>
</svg>
