<?xml version="1.0" encoding="UTF-8"?><svg id="Calque_1" xmlns="http://www.w3.org/2000/svg" viewBox="0 0 50.88 100.91"><defs><style>.cls-1{fill:#124b91;}</style></defs><path class="cls-1" d="m50.69,81.76v-1.12h-.32c-.27,0-.53-.04-.79-.11-.33-.08-.66-.12-1-.12h-.27v-44.24l2.57-2.59h0v-1.58h-2.57v-6h-12.62v-3.18h0v-3h0c-.06-3.93-2.27-8.92-6-10.66v-1.66h-2.6V0h-.31v7.5h-2.63v1.68c-3.68,1.74-5.9,6.73-6,10.66h0v3h0v3.16H6.25v-10.28h-.12c-.46-.13-.9-.33-1.31-.58-.47-.3-.99-.51-1.54-.61v-7.53h-.31v7.5c-.55.1-1.07.31-1.54.61-.4.26-.85.45-1.31.58h-.12v51.46h0c.22.27,2.18,2.6,3.11,2.6.48,0,1.3-.61,2.43-1.8v12.45h-.27c-.34,0-.67.04-1,.12-.26.07-.52.1-.79.11h-.32v1.12c1,0,2.41,2.51,2.4,5h0v14h0v.16h42.72v-.16h0v-14c0-2.46,1.4-4.93,2.43-5h-.02Zm-15-45.75v-2.41h14.75l-2.36,2.41h-12.39ZM.34,25.21c.41-.07.81-.17,1.21-.28.47-.14.96-.24,1.45-.3v12.68c-.52.06-1.03.16-1.53.31-.39.1-.78.2-1.14.27v-12.68h0Zm26.6,1.07h8.43v1.19h-16.86v-1.19h8.43Zm19.82,16.83v3.71h-5.38v-4c0-1.49,1.2-2.69,2.69-2.69s2.69,1.2,2.69,2.69v.32-.03Zm0,11.41v3.92h-5.38v-4.26c0-1.49,1.2-2.69,2.69-2.69s2.69,1.2,2.69,2.69v.33h0Zm-28.56-18.24v2H7.12v-2h11.08Zm-11.13-7.82h3.5v3.55h-3.5v-3.55Zm3.81,0h3.5v3.55h-3.5v-3.55Zm3.81,0h3.5v3.55h-3.5v-3.55h0Zm20.38,46v-1.7h0v-2h11.68v3.75l-11.68-.05Zm-8.13,0h-7.82v-3.72h15.6v3.74h-7.84l.06-.02Zm-19.83,0v-3.72h11.68v2h0v1.73H7.11Zm28.26-31.38v6.35h-5.39v-8.82c-.02-1.53,1.18-2.81,2.71-2.89,1.49,0,2.7,1.21,2.71,2.7v2.69l-.03-.03Zm-11.16-2.08h0v-.73c-.09-.77.12-1.54.57-2.17.58-.4,1.3-.57,2-.46h.28c.7-.11,1.42.06,2,.46.46.62.67,1.4.58,2.17v.73h0v8.51h-5.46v-8.51h.03Zm-11.4,2.16h0v-.33c0-1.49,1.2-2.69,2.69-2.69s2.69,1.2,2.69,2.69v4h-5.39v-3.72.05Zm5.71-2.33v-.36c0-1.49,1.2-2.69,2.69-2.69,0,0,0,0,.01,0,1.52.1,2.7,1.37,2.68,2.89v8.85h-5.39v-8.74.05Zm17.19,2.28v-.33c0-1.49,1.2-2.69,2.69-2.69s2.69,1.2,2.69,2.69v.33h0v3.71h-5.38v-3.71Zm-9,7.89h.89c.56-.04,1.12.13,1.56.48.44.57.65,1.28.57,2v.73h0v7.11h-5.46v-7.12h0v-.73c-.07-.71.13-1.43.57-2,.44-.35,1-.52,1.56-.48h.31Zm-13.88,11.82h6v7.62h-6v-7.62Zm14.13.61c3.99.03,7.33,3.03,7.77,7h-15.54c.44-3.97,3.78-6.97,7.77-7Zm8.14-.61h6v7.62h-6v-7.62Zm0-.31h-16.56v-.88h16.86v.88h-.3Zm.29-8.84v7.64h-5.38v-7.45c0-1.52,1.19-2.77,2.7-2.85,1.49.01,2.69,1.21,2.7,2.7l-.02-.04Zm-11.47.19v7.45h-5.39v-7.65c0-1.49,1.21-2.7,2.7-2.7,1.51.12,2.68,1.38,2.68,2.9h.01Zm-11.09.67h0v-.33c0-1.49,1.2-2.69,2.69-2.69s2.69,1.2,2.69,2.69h0v4.24h-5.39v-3.91h0Zm5.39,8H7.12v-3.77h11.08v3.77Zm-5.7.31v7.62h-5.39v-7.64l5.39.02Zm28.88,7.61v-7.64h5.38v7.62l-5.38.02Zm-5.69-7.94v-3.75h11.08v3.75h-11.08Zm0-4.07v-4.24h0c0-1.49,1.2-2.69,2.69-2.69s2.69,1.2,2.69,2.69v.33h0v3.92h-5.38Zm-8.15-7.78h-9v-.88h16.86v.88h-7.86Zm-9-20h16.86v.83h-16.89v-.83h.03Zm0-2.83h2.15v2.51h-2.17v-2.56l.02.05Zm16.86,2.52h-2.17v-2.56h2.17v2.56Zm-2.48,0h-2.15v-2.56h2.15v2.56Zm-2.46,0h-2.15v-2.56h2.15v2.56Zm-2.47,0h-2v-2.56h2v2.56Zm-2.36,0h-2.15v-2.56h2.15v2.56Zm-2.46,0h-2.18v-2.56h2.15v2.51l.03.05Zm-4.63,1.44h16.86v4.21h-16.9v-4.26l.04.05Zm-11.4,11c0-1.49,1.2-2.69,2.69-2.69s2.69,1.2,2.69,2.69h0v4.06h-5.39v-4.06Zm11.1,4.35v3.86H7.12v-3.87h11.11Zm-11.09,7.06c0-1.49,1.2-2.69,2.69-2.69s2.69,1.2,2.69,2.69v4.27h-5.39v-4.28h0Zm28.55-3.18v-3.88h11.08v3.88h-11.08Zm0-12.73v-2h11.08v2h-11.08Zm0-9.79h3.5v3.52h-3.5v-3.55.03Zm3.81,0h3.5v3.52h-3.5v-3.55.03Zm3.82,0h3.5v3.52h-3.5v-3.55.03Zm-37.43,0h.88v3.52h-.88v-3.55.03Zm12.32,3.89v.93H3.32v-.93h14.89Zm-14.9,14.14c.49.06.98.17,1.46.31l.8.2v11.6l-.72-.18c-.51-.15-1.02-.26-1.55-.31v-11.62h0Zm1.54,0c-.5-.15-1.02-.26-1.54-.31v-8.6c.49.06.98.17,1.46.31l.8.2v8.59l-.72-.19h0Zm0-8.91c-.5-.15-1.02-.25-1.54-.31v-3.4l2.26,2.28v1.62l-.72-.18h0Zm-1.86,20.52c-.51.06-1.02.16-1.52.31-.39.1-.79.21-1.16.27v-11.6c.41-.07.82-.17,1.23-.28.47-.14.96-.24,1.45-.3v11.6h0Zm-2.67.89c.41-.07.83-.17,1.23-.28.47-.14.95-.24,1.44-.3v6.46c-.51.06-1.02.16-1.52.31-.39.1-.8.21-1.16.27v-6.48.02Zm3.01-.59c.5.06.99.17,1.47.31l.8.2v6.44c-.24,0-.48-.12-.72-.18-.51-.15-1.02-.26-1.55-.31v-6.46ZM.32,38.19c.41-.07.82-.17,1.22-.28.47-.14.96-.24,1.45-.3v8.6c-.51.06-1.02.16-1.52.31-.39.1-.79.2-1.15.27v-8.6Zm0,27.59c.39-.06.82-.17,1.24-.28.47-.14.95-.24,1.44-.3v1.18c-.51.06-1.02.16-1.52.31-.4.1-.8.21-1.16.27v-1.18Zm3-.59c.5.06.99.17,1.47.31l.8.2v1.17l-.72-.18c-.51-.15-1.02-.26-1.55-.31v-1.19Zm2.47-29.19l-2.35-2.37h14.75v2.37H5.79Zm1.32,39.88h5.39v4.62l-.35.08c-.33.09-.66.12-1,.11-.32,0-.64-.03-.95-.11-.66-.15-1.34-.15-2,0-.33.09-.66.12-1,.11h-.15v-4.85l.06.04Zm5.7,0h6v4.8c-.23-.01-.46-.05-.69-.11-.66-.15-1.34-.15-2,0-.31.08-.63.12-.95.11-.34,0-.67-.03-1-.11-.33-.08-.66-.12-1-.12h-.35v-4.61.04Zm6.3,4.8v-4.85h4.81v4.69c-.3.08-.62.12-.93.11-.32,0-.64-.04-.95-.11-.66-.15-1.34-.15-2,0-.29.09-.59.13-.89.12l-.04.04Zm5.12-4.8h5.45v4.63c-.24-.04-.49-.06-.73-.06-.34,0-.67.04-1,.12-.31.08-.63.12-.95.11-.32,0-.64-.04-.95-.11-.33-.08-.66-.12-1-.12-.24,0-.49.02-.73.06v-4.67l-.09.04Zm10.52,4.8c-.3,0-.61-.04-.9-.11-.66-.15-1.34-.15-2,0-.31.08-.63.12-.95.11-.31,0-.63-.03-.93-.11v-4.73h4.81v4.8l-.03.04Zm.31-4.8h6v4.58h-.38c-.34,0-.67.04-1,.12-.31.08-.63.12-.95.11-.34,0-.67-.03-1-.11-.66-.15-1.34-.15-2,0-.23.06-.46.1-.69.11v-4.8h.02Zm6.31-.01h5.38v4.8h-.15c-.32,0-.64-.04-.95-.11-.66-.15-1.34-.15-2,0-.33.09-.66.12-1,.11-.32,0-.64-.04-.95-.11l-.35-.08v-4.65l.02.04Zm9.18-42.57h-14.87v-.93h14.88v.93h-.01Zm-3.44-1.31v-3.56h.88v3.56h-.88Zm.88-5.75v1.85h-12.31v-1.82l12.31-.03Zm-21.06-10.61c.35,0,.71.03,1.06.08v1.5h-2.12v-1.5c.35-.06.71-.08,1.06-.08Zm1.37,4.12v-2.23h2.12v2.23h-2.12Zm-.31,0h-2.12v-2.23h2.12v2.23Zm-2.43,0h-2.12v-2.23h2.12v2.23Zm0,.31v2.23h-2.12v-2.23h2.12Zm.31,0h2.12v2.23h-2.12v-2.23Zm2.43,0h2.12v2.23h-2.12v-2.23Zm2.43,2.23v-2.23h2.48c.25.71.38,1.46.38,2.21h0l-2.86.02Zm0-2.54v-2.23h.85c.65.63,1.17,1.39,1.51,2.23h-2.36Zm0-2.54v-.39c.18.12.35.25.51.39h-.51Zm-.31,0h-2.12v-1.44c.75.16,1.47.44,2.12.84,0,0,0,.6,0,.6Zm-4.86,0h-2.12v-.6c.65-.4,1.37-.69,2.12-.84v1.44Zm-2.43,0h-.51c.16-.14.33-.27.51-.39v.39Zm-.85.31h.85v2.23h-2.37c.35-.84.86-1.6,1.52-2.23h0Zm-1.6,2.54h2.48v2.23h-2.86c0-.75.13-1.5.38-2.21v-.02Zm-.4,3.5v-1h2.87v2.22h-2.88v-1.22h.01Zm3.19-1h2.12v2.22h-2.12v-2.22Zm2.43,0h2.12v2.22h-2.12v-2.22Zm2.43,0h2.12v2.22h-2.12v-2.22Zm2.43,0h2.87v2.22h-2.88v-2.22Zm3.18-.34c0-3.87-3.13-7-7-7h0c-3.87,0-7,3.13-7,7v2.56h-1.45v-2.51h0c0-.08,0-.16,0-.24.03-.57.1-1.13.22-1.69,1.08-4.52,5.62-7.31,10.14-6.24,3.09.74,5.5,3.15,6.24,6.24.12.56.19,1.12.22,1.69v.24h0v2.55h-1.45v-2.56l.08-.04Zm-7-8.69h0c-2.8,0-5.43,1.34-7.07,3.6,1.6-2.83,4.08-5.06,7.06-6.36,2.98,1.3,5.47,3.53,7.07,6.36-1.64-2.26-4.27-3.6-7.06-3.6Zm-2.47-5.77h4.94v1.31h-4.94v-1.31Zm-.12,1.62h5.18c3.65,1.69,5.83,6.67,5.84,10.54-1.53-6.72-8.16-9.39-8.37-9.47-.04-.02-.09-.02-.13,0-.32.13-6.85,2.8-8.36,9.47,0-3.87,2.19-8.85,5.84-10.54h0Zm-5.84,15.71h16.86v.9h-16.86v-.9Zm-.31,3H5.89v-1.81h12.31v1.85-.04Zm-12.63-2.1v6h-2.26v-7.38c.49.06.98.17,1.46.31.41.11.83.21,1.21.28v.79h-.41Zm-.88-10.61c.4.25.83.44,1.27.59v8.92c-.35-.06-.75-.16-1.13-.26-.5-.15-1.02-.25-1.54-.31v-9.5c.5.1.97.29,1.39.56h0Zm-3.07,0c.42-.27.89-.46,1.38-.57v9.5c-.52.06-1.03.16-1.53.31-.38.1-.77.2-1.13.26v-8.89c.45-.14.87-.34,1.27-.58v-.03ZM.44,67.24c.35-.07.73-.16,1.1-.26.47-.14.95-.24,1.44-.3v2.82c-.98-.59-1.84-1.36-2.54-2.26h0Zm5,.48c-.58.73-1.31,1.34-2.14,1.78v-2.82c.5.06.99.17,1.47.31l.8.2v.39s-.13.14-.13.14Zm.44-31.45h.92v2h0v12.73h0v29.62c-.16-.02-.32-.05-.48-.09-.14-.04-.29-.07-.44-.09v-44.17Zm41.13,63.44h1v.89h-1v-.89Zm-.32.89h-11v-.89h11v.89Zm-40.81-.89h1v.89h-1v-.89Zm1.31,0h11v.89H7.19v-.89Zm10.2-16.26c.21.42.38.86.51,1.31H7.12l-.64-1.31h10.91Zm.79,16H7.18v-8.91h11v8.91Zm0-9.23H7.18v-1.08h11v1.08Zm0-2.33v.94H7.18v-.94h11Zm4.39,10.5c-.12.89-1.59,1.55-2.82,1.93v-12.49h2.82v10.56Zm11.56,1.94c-1.23-.38-2.7-1-2.82-1.93v-10.5h2.82v12.43Zm-3.14-2.2h-8.1v-10.29h8.1v10.29Zm3.23-13.32h-14.53l-.64-1.31h15.84l-.63,1.31h-.04Zm-11.65,14.31v1.52h-2.81c1.06-.24,2.03-.77,2.81-1.52Zm8.74,0c.78.75,1.75,1.28,2.81,1.52h-2.81v-1.52Zm4.38-10h11v1.08h-11v-1.08Zm11,10.31h-11v-8.91h11s0,8.91,0,8.91Zm0-10.62h-11v-.94h11v.94Zm-10.7-4c.13-.45.3-.89.5-1.31h10.91l-.64,1.31h-10.77Zm12.25-3l-.68,1.39h-10.87c.47-.82,1-1.37,1.51-1.39h10.04Zm-13.78,3.19l1.58-3.22h1.36c-1.32,1.32-2.04,3.13-2,5v13.82c-.24,0-.57-.12-.93-.22v-15.38h-.01Zm.55-1.84h-16.14l-.68-1.39h17.5l-.68,1.39Zm-15.59,17.23c-.36.1-.68.17-.93.22v-13.86c.04-1.87-.68-3.68-2-5h1.36l1.58,3.23v15.41Zm-3.74-18.64c.48,0,1,.57,1.51,1.39H6.3l-.61-1.39h10Zm7.18,16.64h8.1v2.21h-8.1v-2.21Zm-16,1h-1v-12.68h0c0-2-.92-4.17-1.95-4.95h1.37l1.57,3.21v14.43h0Zm41.13-12.7h0v12.7h-1v-14.4h0l1.57-3.2h1.37c-1,.78-1.94,3-1.95,5v-.1Zm1.53-5.88c.28.07.57.11.86.12v.49H3.49v-.43c.29,0,.58-.05.86-.12.33-.09.66-.13,1-.12.32,0,.64.03.95.12.66.15,1.34.15,2,0,.33-.09.66-.13,1-.12.32,0,.64.04.95.12.66.15,1.34.15,2,0,.33-.09.66-.13,1-.12.32,0,.64.04.95.12.66.15,1.34.15,2,0,.33-.09.66-.13,1-.12.32,0,.64.04.95.12.66.15,1.34.15,2,0,.33-.09.66-.13,1-.12.32,0,.64.04.95.12.66.15,1.34.15,2,0,.31-.09.63-.13.95-.12.32,0,.64.04.95.12.66.15,1.34.15,2,0,.62-.16,1.28-.16,1.9,0,.66.15,1.34.15,2,0,.31-.09.63-.13.95-.12.32,0,.64.03.95.12.66.15,1.34.15,2,0,.31-.09.63-.13.95-.12.34-.01.67.03,1,.12.66.15,1.34.15,2,0,.31-.09.63-.13.95-.12.34-.01.67.03,1,.12.66.15,1.34.15,2,0,.31-.09.63-.13.95-.12.34,0,.67.03,1,.12.66.15,1.34.15,2,0,.31-.09.63-.13.95-.12.3,0,.6.03.88.12l.04-.06Zm-2-.3c-.16.04-.32.07-.48.09v-29.61h0v-12.75h0v-2h.92v44.19c-.15.02-.3.05-.44.09h0Z"/></svg>